<?xml version="1.0" encoding="utf-8"?>
<!-- Generator: Adobe Illustrator 21.1.0, SVG Export Plug-In . SVG Version: 6.00 Build 0)  -->
<svg version="1.1" id="Layer_1" xmlns="http://www.w3.org/2000/svg" xmlns:xlink="http://www.w3.org/1999/xlink" x="0px" y="0px"
	 width="100px" height="100px" viewBox="0 0 100 100" style="enable-background:new 0 0 100 100;" xml:space="preserve">
<g>
	<path d="M49.6,14.7c-19.4,0-35.2,15.8-35.2,35.2S30.2,85,49.6,85C69,85,84.8,69.2,84.8,49.8S69,14.7,49.6,14.7z M55.7,38.4
		c0.9-3.6,3.4-6.1,6-6.1c0.3,0,0.6,0,0.9,0.1c2.9,0.7,4.4,4.5,3.4,8.5c-0.5,2-1.5,3.7-2.8,4.8c-1.3,1.1-2.8,1.5-4.1,1.2
		c-1.4-0.3-2.5-1.4-3.1-2.9C55.4,42.3,55.3,40.3,55.7,38.4z M44.6,37l0,5.3l-13.2,0l0-5.3L44.6,37z M49.6,70.7
		c-9.4,0-17.6-6.2-20.1-15.2l5.1-1.3c1.9,6.6,8,11.2,15,11.2c6.9,0,13-4.6,15-11.2l5.1,1.3C67.1,64.5,59,70.7,49.6,70.7z"/>
</g>
</svg>
